<?xml version="1.0" standalone="no"?>
<!DOCTYPE svg PUBLIC "-//W3C//DTD SVG 20010904//EN"
 "http://www.w3.org/TR/2001/REC-SVG-20010904/DTD/svg10.dtd">
<svg version="1.0" xmlns="http://www.w3.org/2000/svg"
 width="2042.000000pt" height="770.000000pt" viewBox="0 0 2042.000000 770.000000"
 preserveAspectRatio="xMidYMid meet">

<g transform="translate(0.000000,770.000000) scale(0.100000,-0.100000)"
fill="#000000" stroke="none">
<path d="M16302 6356 c-100 -19 -105 -22 -96 -48 4 -13 10 -25 13 -28 4 -3 15
-26 24 -51 10 -26 27 -57 38 -70 11 -12 22 -33 25 -46 4 -13 10 -23 16 -23 5
0 6 -5 3 -10 -3 -6 1 -13 9 -16 9 -3 13 -10 10 -15 -3 -5 2 -12 10 -15 9 -3
14 -10 11 -15 -3 -4 4 -13 15 -19 11 -6 18 -15 15 -19 -2 -5 11 -21 30 -36 20
-14 33 -30 31 -34 -3 -4 11 -23 31 -42 20 -19 33 -28 29 -21 -4 7 13 -8 39
-33 56 -54 224 -138 324 -161 45 -11 101 -15 179 -12 l112 3 0 -106 c0 -97 -2
-107 -17 -103 -55 14 -431 -258 -695 -503 -317 -293 -538 -582 -694 -908 -151
-316 -208 -556 -208 -880 0 -167 3 -205 27 -316 14 -69 37 -157 50 -196 22
-65 23 -75 12 -130 -40 -193 106 -399 303 -429 60 -9 152 -75 152 -110 0 -27
26 -44 68 -44 34 0 36 -6 48 -143 l6 -77 -35 0 c-42 0 -62 -20 -53 -55 6 -22
12 -25 51 -25 50 0 47 5 60 -125 7 -77 36 -136 87 -180 80 -68 51 -66 889 -63
l754 3 41 22 c56 30 119 104 133 155 6 24 15 90 21 148 5 58 15 160 21 227
l12 121 40 22 c22 13 68 45 104 71 35 27 74 49 87 49 12 0 45 7 72 17 183 62
295 255 250 432 -10 39 -13 69 -7 79 19 36 72 241 91 349 83 480 -14 922 -295
1343 -126 188 -201 277 -404 480 -238 237 -421 388 -681 560 -149 99 -183 115
-210 100 -19 -10 -20 -7 -20 101 0 111 0 111 23 105 193 -52 459 49 549 209
53 95 87 170 79 178 -15 15 -211 20 -273 8 -83 -18 -194 -76 -250 -132 -31
-32 -63 -79 -90 -134 -22 -47 -46 -85 -53 -85 -7 0 -15 22 -19 58 -15 133 -74
286 -141 368 -19 23 -32 43 -30 46 10 10 -103 98 -177 138 -20 11 -76 32 -125
46 -109 33 -305 42 -421 20z m935 -997 c10 -9 47 -33 82 -54 93 -56 336 -231
459 -332 133 -108 455 -429 546 -543 162 -204 299 -445 365 -647 104 -312 107
-664 11 -1022 l-22 -80 -24 16 c-22 14 -26 14 -49 -1 -33 -22 -32 -50 5 -97
135 -169 15 -421 -209 -437 -204 -14 -333 181 -240 367 54 108 168 170 290
157 65 -6 83 5 77 51 -2 17 -12 32 -28 40 -30 15 -122 17 -169 3 -19 -5 -36
-8 -38 -7 -1 2 2 44 8 94 14 112 -2 177 -56 241 l-37 42 35 48 c47 64 80 133
109 222 35 112 32 274 -6 385 -39 115 -99 209 -186 295 -121 118 -269 194
-452 232 -94 20 -136 21 -493 22 -437 0 -502 -6 -665 -67 -130 -49 -194 -91
-300 -197 -153 -152 -213 -289 -214 -490 0 -149 42 -278 130 -402 l34 -48 -40
-52 c-49 -65 -64 -126 -55 -223 l7 -73 -79 -6 c-128 -11 -143 -15 -155 -41 -8
-19 -8 -29 4 -46 13 -20 23 -23 94 -23 65 -1 89 -6 136 -29 148 -73 209 -243
133 -373 -83 -142 -283 -166 -413 -49 -65 59 -95 122 -95 200 0 69 17 117 62
167 35 40 39 63 14 90 -21 23 -34 23 -66 -2 l-26 -20 -16 56 c-79 273 -68 632
28 949 82 268 243 563 443 815 205 256 576 590 876 787 70 46 129 87 132 92 8
13 32 8 53 -10z m-462 -1431 c47 -36 55 -73 55 -238 0 -171 -9 -207 -62 -240
-44 -28 -92 -20 -133 20 l-30 30 -3 177 c-4 189 2 219 46 253 33 27 92 26 127
-2z m986 6 c50 -25 59 -63 59 -247 0 -154 -1 -166 -23 -198 -45 -68 -118 -75
-173 -18 l-29 30 -3 166 c-3 133 0 175 12 207 26 69 92 94 157 60z m365 -850
c74 -55 87 -103 68 -260 -7 -64 -15 -117 -16 -118 -2 0 -18 -14 -35 -30 l-32
-29 5 34 c2 19 9 88 13 154 11 137 1 173 -53 206 -30 18 -67 19 -896 19 -834
0 -867 -1 -908 -20 -41 -19 -42 -19 -32 0 12 22 57 56 85 63 11 3 415 4 897 3
869 -1 877 -1 904 -22z m-1775 -263 c36 -36 38 -79 7 -115 -28 -32 -90 -39
-115 -13 -16 16 -15 17 16 17 45 0 71 16 71 45 0 36 -26 55 -76 55 -31 0 -44
4 -44 14 0 17 19 23 73 25 30 1 45 -5 68 -28z m1363 -217 c31 -32 33 -62 5
-98 l-20 -26 -468 0 c-433 0 -469 1 -483 18 -26 28 -30 59 -14 91 9 16 21 31
28 34 7 3 218 6 469 6 l456 1 27 -26z m-1319 -104 c9 -14 -4 -52 -16 -45 -12
8 -12 55 0 55 6 0 13 -5 16 -10z m15 -245 c0 -29 -19 -45 -52 -45 -15 0 -28 2
-28 4 0 2 9 25 21 51 20 45 21 46 40 29 10 -9 19 -27 19 -39z m1296 24 c31
-29 31 -63 -1 -94 l-24 -25 -452 0 c-451 0 -453 0 -476 22 -39 37 -25 95 28
118 16 6 178 8 463 6 438 -4 438 -5 462 -27z m417 -147 c-2 -15 -17 -170 -33
-346 -19 -193 -36 -329 -44 -345 -27 -51 -85 -91 -133 -91 l-28 1 30 13 c33
14 85 69 85 90 0 7 9 111 20 232 11 120 24 273 30 339 6 66 13 139 16 163 l5
44 28 -37 c17 -24 26 -46 24 -63z m-1943 -67 c0 -23 -2 -24 -20 -13 -23 15
-25 24 -7 31 23 10 27 7 27 -18z m2074 16 c3 -4 -3 -16 -14 -26 -19 -18 -20
-17 -20 8 0 26 22 38 34 18z m-1853 -31 c21 -12 49 -60 49 -85 0 -9 -13 -30
-29 -46 -24 -24 -38 -29 -75 -29 -39 0 -46 3 -46 20 0 16 7 20 34 20 45 0 70
31 54 66 -9 20 -19 24 -54 24 -43 0 -61 11 -49 30 8 13 91 13 116 0z m1053
-76 c27 -27 31 -63 9 -92 -17 -23 -29 -28 -89 -33 -38 -3 -188 -3 -333 -1
-248 5 -264 6 -282 25 -25 27 -24 58 2 91 l20 26 329 0 c285 0 331 -2 344 -16z
m-997 -256 c59 -55 5 -152 -81 -146 -29 2 -42 8 -44 21 -3 13 4 17 30 17 57 0
89 40 62 79 -12 16 -26 21 -60 21 -32 0 -44 4 -44 15 0 26 108 20 137 -7z"/>
<path d="M9668 6317 c-62 -18 -130 -75 -159 -134 l-24 -48 -3 -838 -2 -839 26
-59 c44 -98 121 -142 246 -142 58 0 87 6 122 23 55 26 109 86 124 139 9 28 12
269 12 877 l0 839 -24 51 c-23 50 -80 105 -129 123 -46 18 -140 21 -189 8z"/>
<path d="M8740 5617 c-161 -68 -425 -296 -553 -479 -139 -199 -199 -317 -262
-512 -54 -165 -67 -250 -72 -473 -6 -234 9 -372 58 -531 82 -263 192 -460 364
-654 263 -298 582 -484 1008 -589 206 -51 729 -50 937 1 199 49 289 82 465
171 457 229 789 638 914 1126 100 386 56 806 -124 1178 -144 299 -430 608
-688 744 -69 36 -86 41 -145 41 -49 0 -76 -5 -99 -20 -55 -33 -68 -63 -114
-255 -29 -123 -28 -125 39 -164 523 -308 779 -926 606 -1463 -66 -203 -157
-352 -308 -504 -187 -186 -409 -306 -652 -353 -60 -12 -131 -26 -157 -31 -111
-23 -396 -5 -586 36 -296 64 -622 288 -792 544 -111 166 -162 293 -195 480
-29 165 -30 231 -4 383 36 213 115 395 249 571 56 74 258 259 349 320 95 63
103 71 99 95 -70 342 -77 354 -206 359 -61 2 -87 -2 -131 -21z"/>
<path d="M7852 1894 c-20 -14 -22 -23 -22 -115 l0 -99 -54 0 c-62 0 -79 -14
-74 -62 l3 -33 63 -3 62 -3 0 -204 c0 -214 10 -295 40 -325 10 -10 16 -21 14
-23 -12 -11 66 -57 121 -72 121 -31 173 -13 166 60 -2 26 -19 35 -69 35 -59 0
-108 23 -132 62 -18 30 -20 50 -20 251 l0 217 94 0 c116 0 126 3 126 44 0 50
-13 56 -121 56 l-97 0 -4 105 c-2 80 -7 108 -18 115 -22 14 -53 12 -78 -6z"/>
<path d="M5030 1685 c-111 -32 -173 -86 -211 -185 -17 -44 -19 -77 -19 -289 0
-258 1 -264 55 -263 52 0 53 6 57 255 3 223 4 234 28 282 21 41 35 55 79 78
90 45 196 32 249 -31 54 -65 55 -71 59 -325 1 -131 5 -242 8 -246 11 -19 57
-22 82 -6 l24 16 -3 252 c-3 231 -5 256 -24 297 -20 44 -106 142 -121 139 -4
-1 -24 5 -44 14 -55 24 -154 30 -219 12z"/>
<path d="M6500 1686 c-30 -7 -72 -20 -92 -30 -42 -20 -132 -96 -124 -104 3 -2
-8 -24 -25 -47 -66 -92 -70 -242 -10 -367 36 -74 74 -113 156 -159 58 -33 64
-34 170 -34 109 0 111 0 180 38 91 51 117 76 157 155 28 57 33 79 36 159 6
122 -21 202 -92 280 -26 29 -54 53 -62 53 -8 0 -14 4 -14 8 0 21 -143 64 -204
61 -11 0 -46 -6 -76 -13z m171 -111 c53 -19 74 -36 116 -95 41 -60 57 -121 49
-192 -8 -78 -26 -118 -76 -164 -62 -58 -116 -84 -175 -84 -83 0 -121 16 -181
76 -30 30 -54 58 -55 62 0 4 -3 16 -6 27 -19 68 -7 255 16 255 4 0 22 20 39
44 54 75 172 106 273 71z"/>
<path d="M9214 1690 c-108 -23 -202 -99 -250 -203 -26 -56 -29 -72 -29 -167 0
-138 24 -201 105 -280 72 -70 146 -100 246 -100 124 0 216 40 282 122 37 48
39 61 12 88 -26 26 -56 25 -78 -2 -59 -74 -114 -103 -197 -103 -106 0 -134 10
-184 69 -14 15 -31 35 -39 43 -14 14 -31 71 -32 106 0 16 19 17 265 17 252 0
266 1 285 20 45 45 9 206 -65 284 -22 23 -51 50 -65 59 -63 40 -183 62 -256
47z m175 -130 c57 -29 98 -83 115 -152 l6 -28 -230 0 -231 0 7 23 c25 81 95
157 162 176 48 13 126 5 171 -19z"/>
<path d="M10570 1685 c-66 -19 -109 -43 -124 -70 -6 -11 -14 -22 -17 -25 -28
-24 -40 -140 -18 -181 5 -11 27 -35 47 -54 36 -33 67 -46 227 -94 82 -25 122
-55 131 -97 5 -24 -1 -38 -28 -71 -34 -43 -60 -53 -131 -53 -46 0 -117 19
-117 32 0 4 -7 8 -15 8 -8 0 -15 6 -15 14 0 27 -45 69 -73 69 -101 -1 -61
-127 59 -188 53 -27 68 -30 154 -30 73 0 106 5 140 20 25 11 47 22 50 25 3 3
13 10 24 15 10 6 18 14 17 18 0 4 8 16 18 26 44 44 35 180 -17 234 -14 15 -29
27 -34 27 -4 0 -32 11 -61 25 -30 13 -75 29 -100 35 -75 16 -125 40 -152 72
-30 36 -31 51 -5 93 24 38 64 55 129 54 72 0 112 -19 144 -66 31 -47 57 -54
95 -27 27 19 27 27 1 81 -24 50 -50 69 -123 95 -73 26 -142 30 -206 13z"/>
<path d="M1220 1365 l0 -35 1453 0 1452 0 2 35 3 35 -1455 0 -1455 0 0 -35z"/>
<path d="M11600 1365 l0 -35 1665 0 1665 0 0 35 0 35 -1665 0 -1665 0 0 -35z"/>
</g>
</svg>
